<svg xmlns="http://www.w3.org/2000/svg" width="32" height="33" viewBox="0 0 32 33">
    <g fill="none" fill-rule="evenodd">
        <g>
            <g>
                <g>
                    <g>
                        <g>
                            <g>
                                <path d="M0 0H32V32H0z" transform="translate(-84 -500) translate(24 16) translate(0 67) translate(0 402) translate(8 15) translate(52)"/>
                                <g fill="#A8A93D">
                                    <g>
                                        <path fill-opacity=".6" d="M11.308 5.077H25.308V19.076999999999998H11.308z" transform="translate(-84 -500) translate(24 16) translate(0 67) translate(0 402) translate(8 15) translate(52) translate(0 1) translate(3.692 .615)"/>
                                        <g fill-rule="nonzero">
                                            <path d="M3.578 13.38c.316 0 .576.237.611.543l.004.072v1.774c0 .34-.275.616-.615.616-.316 0-.576-.238-.611-.544l-.004-.072v-1.774c0-.34.275-.615.615-.615zM16.269 13.38c.315 0 .576.237.611.543l.004.072v1.64c0 .34-.275.616-.615.616-.316 0-.576-.238-.611-.544l-.004-.072v-1.64c0-.34.275-.615.615-.615zM9.23 13.38c.316 0 .576.237.612.543l.004.072v1.64c0 .34-.275.616-.615.616-.316 0-.576-.238-.611-.544l-.005-.072v-1.64c0-.34.276-.615.616-.615zM7.095 7.154c1.552 0 2.947.946 3.522 2.388.126.316-.028.674-.344.8-.316.125-.674-.029-.8-.344-.371-.934-1.252-1.56-2.248-1.61l-.13-.003H4.528c-.34 0-.615-.276-.615-.616 0-.315.237-.575.544-.611l.071-.004h2.567z" transform="translate(-84 -500) translate(24 16) translate(0 67) translate(0 402) translate(8 15) translate(52) translate(0 1) translate(3.692 .615) translate(0 13.385)"/>
                                            <path d="M4.852.385c.024 0 .048.001.072.004L4.986.4l.028-.003.132-.01.134-.002c1.999 0 3.803 1.177 4.613 2.992l.068.162 2.414 5.959h3.536c1.37 0 2.487 1.076 2.553 2.429l.004.127c0 1.37-1.077 2.487-2.429 2.553l-.128.003H4.501c-1.433 0-2.669-.987-2.995-2.369l-.029-.135L.225 5.494C-.218 3.157 1.318.903 3.655.46c.199-.038.4-.061.6-.07l.202-.005h.395zM2.538 2.286l-.037.03c-.801.662-1.244 1.71-1.091 2.8l.024.149 1.253 6.612c.158.835.864 1.45 1.703 1.5l.11.003h11.411c.732 0 1.326-.594 1.326-1.326 0-.7-.543-1.273-1.23-1.322l-.096-.003H6.568c-1.354 0-2.543-.884-2.94-2.167l-.038-.135-1.14-4.38c-.063-.24-.095-.488-.095-.737 0-.3.045-.588.128-.86l.055-.164zm2.897-.667l-.155-.004c-.936 0-1.694.76-1.694 1.695 0 .096.008.192.024.286l.03.141 1.141 4.38c.203.778.884 1.331 1.678 1.378l.109.003h4.48L8.82 4c-.565-1.394-1.892-2.322-3.386-2.382z" transform="translate(-84 -500) translate(24 16) translate(0 67) translate(0 402) translate(8 15) translate(52) translate(0 1) translate(3.692 .615) translate(0 13.385)"/>
                                            <path d="M12.753 7.154c1.587 0 3.03.918 3.703 2.355.144.308.011.674-.297.818-.308.144-.674.012-.818-.296-.45-.963-1.396-1.592-2.45-1.643l-.138-.003h-1.577c-.34 0-.615-.276-.615-.616 0-.315.237-.575.543-.611l.072-.004h1.577z" transform="translate(-84 -500) translate(24 16) translate(0 67) translate(0 402) translate(8 15) translate(52) translate(0 1) translate(3.692 .615) translate(0 13.385)"/>
                                        </g>
                                        <g fill-rule="nonzero">
                                            <g>
                                                <path d="M1.538-.422c.316 0 .576.237.612.544l.004.071v5.732c0 .34-.276.615-.616.615-.315 0-.575-.237-.61-.543l-.005-.072V.193c0-.34.276-.615.615-.615z" transform="translate(-84 -500) translate(24 16) translate(0 67) translate(0 402) translate(8 15) translate(52) translate(0 1) translate(3.692 .615) translate(2.462) matrix(-1 0 0 1 8.615 0)"/>
                                                <path d="M1.422 5.538c1.087 0 1.975.851 2.035 1.923l.003.115v2.704c0 .315-.237.575-.543.61l-.072.005H1.422c-.34 0-.615-.276-.615-.615 0-.316.238-.576.544-.612l.071-.004h.807V7.576c0-.418-.317-.761-.724-.803l-.083-.004c-.417 0-.761.318-.802.725l-.005.082v2.704c0 .34-.275.615-.615.615-.316 0-.576-.238-.611-.544l-.004-.071V7.576c0-1.125.912-2.038 2.037-2.038z" transform="translate(-84 -500) translate(24 16) translate(0 67) translate(0 402) translate(8 15) translate(52) translate(0 1) translate(3.692 .615) translate(2.462) matrix(-1 0 0 1 8.615 0)"/>
                                            </g>
                                            <g>
                                                <path d="M1.538-.422c.316 0 .576.237.612.544l.004.071v1.424c0 .34-.276.616-.616.616-.315 0-.575-.238-.61-.544l-.005-.072V.193c0-.34.276-.615.615-.615z" transform="translate(-84 -500) translate(24 16) translate(0 67) translate(0 402) translate(8 15) translate(52) translate(0 1) translate(3.692 .615) translate(2.462) matrix(-1 0 0 1 14.154 0)"/>
                                                <path d="M1.422 1.23c1.087 0 1.975.851 2.035 1.923l.003.116v2.703c0 .315-.237.576-.543.611l-.072.004H1.422c-.34 0-.615-.275-.615-.615 0-.316.238-.576.544-.611l.071-.004h.807V3.268c0-.418-.317-.762-.724-.803l-.083-.004c-.417 0-.761.317-.802.724l-.005.083v2.703c0 .34-.275.615-.615.615-.316 0-.576-.237-.611-.543l-.004-.072V3.269c0-1.126.912-2.038 2.037-2.038z" transform="translate(-84 -500) translate(24 16) translate(0 67) translate(0 402) translate(8 15) translate(52) translate(0 1) translate(3.692 .615) translate(2.462) matrix(-1 0 0 1 14.154 0)"/>
                                            </g>
                                            <g>
                                                <path d="M1.538-.422c.316 0 .576.237.612.544l.004.071V4.08c0 .34-.276.615-.616.615-.315 0-.575-.237-.61-.543l-.005-.072V.193c0-.34.276-.615.615-.615z" transform="translate(-84 -500) translate(24 16) translate(0 67) translate(0 402) translate(8 15) translate(52) translate(0 1) translate(3.692 .615) translate(2.462) matrix(-1 0 0 1 3.077 0)"/>
                                                <path d="M1.422 3.692c1.087 0 1.975.85 2.035 1.922l.003.116v2.703c0 .316-.237.576-.543.612l-.072.004H1.422c-.34 0-.615-.276-.615-.616 0-.315.238-.575.544-.61l.071-.005h.807V5.73c0-.418-.317-.761-.724-.803l-.083-.004c-.417 0-.761.318-.802.725l-.005.082v2.703c0 .34-.275.616-.615.616-.316 0-.576-.238-.611-.544l-.004-.072V5.73c0-1.125.912-2.038 2.037-2.038z" transform="translate(-84 -500) translate(24 16) translate(0 67) translate(0 402) translate(8 15) translate(52) translate(0 1) translate(3.692 .615) translate(2.462) matrix(-1 0 0 1 3.077 0)"/>
                                            </g>
                                        </g>
                                    </g>
                                    <path fill-rule="nonzero" d="M31.385 0c.34 0 .615.276.615.615 0 .316-.238.576-.544.612l-.071.004H1.82v29.404c0 .316-.237.576-.543.611l-.072.005c-.316 0-.576-.238-.611-.544l-.005-.072V.615C.59.3.828.04 1.134.005L1.206 0h30.179z" transform="translate(-84 -500) translate(24 16) translate(0 67) translate(0 402) translate(8 15) translate(52) translate(0 1) matrix(1 0 0 -1 0 31.25)"/>
                                </g>
                            </g>
                        </g>
                    </g>
                </g>
            </g>
        </g>
    </g>
</svg>
