<svg xmlns="http://www.w3.org/2000/svg" xmlns:xlink="http://www.w3.org/1999/xlink" width="48" height="48" viewBox="0 0 48 48">
    <defs>
        <path id="ofh1dnck2a" d="M0 0H48V48H0z"/>
    </defs>
    <g fill="none" fill-rule="evenodd">
        <g>
            <g>
                <g>
                    <g>
                        <g transform="translate(-663 -515) translate(193 499) translate(-1274) translate(1728) translate(16 16)">
                            <mask id="0af1awcdub" fill="#fff">
                                <use xlink:href="#ofh1dnck2a"/>
                            </mask>
                            <g fill="#E47290" mask="url(#0af1awcdub)">
                                <g>
                                    <path fill-opacity=".6" d="M26.372 30H1.802c-.957 0-1.744-.778-1.744-1.735V13.692c0-.466.181-.913.521-1.238L12.808.497c.68-.659 1.76-.665 2.443-.006L27.6 12.454c.34.331.522.772.522 1.237v14.56c-.004.971-.78 1.749-1.75 1.749" transform="translate(0 1)"/>
                                    <path fill-rule="nonzero" d="M15.155 17.106c5.443-5.455 14.25-5.478 19.669-.047 4.741 4.752 5.344 12.161 1.671 17.617l-.246.353 11.475 10.224c.38.34.44.904.159 1.313l-.078.1c-.34.38-.904.44-1.313.158l-.099-.077-12.17-10.844c-.401-.358-.448-.97-.104-1.384 3.918-4.73 3.632-11.695-.711-16.048-4.636-4.646-12.174-4.626-16.838.048-4.665 4.675-4.684 12.234-.047 16.881 3.962 3.971 10.145 4.59 14.825 1.579.465-.3 1.083-.165 1.382.3.299.464.165 1.083-.3 1.381-5.467 3.518-12.69 2.795-17.323-1.847-5.418-5.43-5.395-14.252.048-19.707z" transform="translate(0 1)"/>
                                </g>
                            </g>
                        </g>
                    </g>
                </g>
            </g>
        </g>
    </g>
</svg>
