<svg xmlns="http://www.w3.org/2000/svg" width="47" height="47" viewBox="0 0 47 47">
    <g fill="none" fill-rule="evenodd">
        <g>
            <g>
                <g>
                    <g>
                        <g>
                            <path d="M1.412 0H46.588V45.176H1.412z" transform="translate(-854 -515) translate(193 499) translate(-699) translate(1344) translate(16 16)"/>
                            <g fill="#E3991E" transform="translate(-854 -515) translate(193 499) translate(-699) translate(1344) translate(16 16)">
                                <circle cx="33.939" cy="11.746" r="11.746" fill-opacity=".6"/>
                                <g fill-rule="nonzero">
                                    <path d="M12.452.725c.318-.271.774-.287 1.107-.052l.088.07 10.68 9.704H44.78c.464 0 .845.349.898.798l.006.106c0 .463-.35.845-.798.897l-.106.006H23.976c-.187 0-.369-.058-.52-.165l-.088-.07L13.02 2.616l-10.705 9.15v12c0 .462-.349.844-.798.897l-.105.006c-.464 0-.845-.35-.898-.799l-.006-.105V11.351c0-.227.085-.444.236-.609l.08-.078L12.453.724z" transform="translate(0 20.273)"/>
                                    <g>
                                        <path d="M16.6.324c.464 0 .845.35.897.799l.006.105-.016 12.304c0 .5-.406.903-.905.903-.463 0-.845-.35-.896-.8l-.006-.105.016-12.304c0-.5.405-.903.904-.902zM8.747 6.339c.464 0 .845.348.898.798l.006.105v5.82c0 .499-.405.903-.904.903-.463 0-.845-.349-.897-.798l-.006-.105V8.145H2.575l.001 4.917c0 .463-.349.845-.798.897l-.105.006c-.464 0-.846-.349-.898-.798l-.006-.105v-5.82c0-.463.349-.845.798-.897l.106-.006h7.073zM37.378.686c.464 0 .845.35.897.8l.006.105-.016 12.304c0 .5-.406.903-.905.902-.463 0-.845-.35-.896-.799l-.006-.105.016-12.304c0-.5.405-.903.904-.903z" transform="translate(0 20.273) rotate(-1 625.753 -417.517)"/>
                                    </g>
                                </g>
                                <g fill-rule="nonzero">
                                    <path d="M31.624 13.292c.499 0 .903.404.903.903 0 .464-.349.846-.798.898l-.105.006H14.33c-.499 0-.903-.405-.903-.904 0-.463.349-.845.798-.897l.105-.006h17.294zM0 .406l18.168.02c.5 0 .903.405.903.904 0 .463-.35.845-.8.896l-.105.006L0 2.213c-.499 0-.903-.405-.903-.904.001-.464.35-.845.8-.897L0 .406zM24.949 6.673c.499 0 .903.405.903.904 0 .463-.349.845-.798.897l-.105.006H7.346c-.499 0-.903-.404-.903-.903 0-.464.349-.846.798-.898l.105-.006H24.95z" transform="translate(12.136 14.108)"/>
                                    <path d="M-.672.725C-.365.382.146.33.515.586l.089.07 14.33 12.867c.371.333.402.905.069 1.276-.308.343-.819.395-1.187.14l-.09-.071L-.603 2c-.37-.333-.402-.905-.068-1.276zM9.262 1.273c.313-.337.825-.381 1.189-.119l.088.072 12.65 11.746c.365.34.386.911.047 1.277-.314.338-.825.382-1.19.12l-.087-.073L9.309 2.55c-.365-.34-.387-.91-.047-1.277zM18.296 1.431c.313-.337.824-.381 1.189-.12l.088.073 12.65 11.746c.365.34.386.911.046 1.277-.313.337-.824.381-1.189.119l-.087-.072-12.65-11.746c-.366-.34-.387-.911-.047-1.277z" transform="translate(12.136 14.108)"/>
                                </g>
                            </g>
                        </g>
                    </g>
                </g>
            </g>
        </g>
    </g>
</svg>